<svg xmlns="http://www.w3.org/2000/svg" viewBox="0 0 720 220" fill="none">
  <defs>
    <linearGradient id="brandStroke" x1="32" y1="150" x2="230" y2="36" gradientUnits="userSpaceOnUse">
      <stop stop-color="#7BFF5C"/>
      <stop offset="1" stop-color="#08DBFF"/>
    </linearGradient>
    <linearGradient id="brandText" x1="250" y1="86" x2="470" y2="186" gradientUnits="userSpaceOnUse">
      <stop stop-color="#74FF58"/>
      <stop offset="1" stop-color="#35E3D1"/>
    </linearGradient>
    <filter id="glow" x="-30%" y="-30%" width="160%" height="160%">
      <feGaussianBlur stdDeviation="4" result="blur"/>
      <feColorMatrix in="blur" type="matrix"
        values="1 0 0 0 0
                0 1 0 0 0
                0 0 1 0 0
                0 0 0 .35 0" />
    </filter>
  </defs>

  <g filter="url(#glow)">
    <path d="M44 116h36c8 0 14-2 19-8l17-18c4-4 8-6 14-6h58" stroke="url(#brandStroke)" stroke-width="10" stroke-linecap="round"/>
    <path d="M84 130L108 52h31c16 0 20 16 10 23l-10 7 26 38" stroke="url(#brandStroke)" stroke-width="9" stroke-linecap="round" stroke-linejoin="round"/>
    <path d="M150 46l12-14m44 20l12-14" stroke="#10E4EA" stroke-width="6" stroke-linecap="round"/>
    <circle cx="168" cy="30" r="7.5" fill="#77FF63"/>
    <circle cx="213" cy="30" r="7.5" fill="#10E4EA"/>
    <path d="M34 84h16m-10 12h20m140 28h18m-12 12h24" stroke="rgba(16,228,234,0.5)" stroke-width="4" stroke-linecap="round"/>
  </g>

  <text x="252" y="144" font-family="Inter,Arial,sans-serif" font-weight="800" font-size="76" fill="url(#brandText)">Phew</text>
  <text x="456" y="144" font-family="Inter,Arial,sans-serif" font-weight="800" font-size="76" fill="#F5F7FB">.run</text>
  <text x="255" y="182" font-family="Inter,Arial,sans-serif" font-weight="500" font-size="24" fill="rgba(245,247,251,0.86)" letter-spacing=".08em">
    A PHEW RUNNING THE INTERNET
  </text>
</svg>

