<svg xmlns="http://www.w3.org/2000/svg" viewBox="0 0 128 128" fill="none">
  <defs>
    <radialGradient id="glowL" cx="0" cy="0" r="1" gradientUnits="userSpaceOnUse" gradientTransform="translate(46 66) rotate(90) scale(44)">
      <stop offset="0" stop-color="#9BFF37" stop-opacity=".9"/>
      <stop offset=".58" stop-color="#78FF49" stop-opacity=".28"/>
      <stop offset="1" stop-color="#78FF49" stop-opacity="0"/>
    </radialGradient>
    <radialGradient id="glowR" cx="0" cy="0" r="1" gradientUnits="userSpaceOnUse" gradientTransform="translate(84 66) rotate(90) scale(44)">
      <stop offset="0" stop-color="#20E7F4" stop-opacity=".88"/>
      <stop offset=".58" stop-color="#20E7F4" stop-opacity=".26"/>
      <stop offset="1" stop-color="#20E7F4" stop-opacity="0"/>
    </radialGradient>
    <linearGradient id="runnerL" x1="22" y1="96" x2="66" y2="30" gradientUnits="userSpaceOnUse">
      <stop stop-color="#5BDF14"/>
      <stop offset=".55" stop-color="#91FF33"/>
      <stop offset="1" stop-color="#D3FF49"/>
    </linearGradient>
    <linearGradient id="runnerR" x1="66" y1="98" x2="106" y2="30" gradientUnits="userSpaceOnUse">
      <stop stop-color="#00C9D8"/>
      <stop offset=".58" stop-color="#1FE5F2"/>
      <stop offset="1" stop-color="#5BF4FF"/>
    </linearGradient>
    <filter id="shadow" x="-20%" y="-20%" width="150%" height="160%">
      <feDropShadow dx="0" dy="3" stdDeviation="3" flood-color="#000" flood-opacity=".45"/>
    </filter>
  </defs>

  <rect x="3" y="3" width="122" height="122" rx="22" fill="#0A0F12"/>
  <rect x="3.5" y="3.5" width="121" height="121" rx="21.5" stroke="rgba(255,255,255,.08)"/>
  <circle cx="46" cy="66" r="42" fill="url(#glowL)"/>
  <circle cx="84" cy="66" r="42" fill="url(#glowR)"/>

  <g opacity=".65" stroke-linecap="round">
    <path d="M16 52h8" stroke="#8CFF40" stroke-width="2.8"/>
    <path d="M12 58h14" stroke="#8CFF40" stroke-width="3"/>
    <path d="M98 71h10" stroke="#21E4F0" stroke-width="2.8"/>
    <path d="M102 77h14" stroke="#21E4F0" stroke-width="3"/>
  </g>

  <g filter="url(#shadow)">
    <g stroke="#071012" stroke-width="8.6" stroke-linecap="round" stroke-linejoin="round">
      <path d="M28 46l12-9h16l-9 12" />
      <path d="M39 48l-10 25 18-14" />
      <path d="M44 49l16 2-8 10" />
      <path d="M51 38l8 9" />
      <circle cx="48" cy="29" r="5.8" />

      <path d="M66 46l10-9 14 8" />
      <path d="M75 49l16 16" />
      <path d="M69 51l13 1-8 9" />
      <path d="M84 39l8 9" />
      <path d="M72 63l15 8-10 11h18" />
      <circle cx="83" cy="29" r="5.8" />
    </g>

    <g stroke-linecap="round" stroke-linejoin="round">
      <g stroke="url(#runnerL)" stroke-width="6.8">
        <path d="M28 46l12-9h16l-9 12" />
        <path d="M39 48l-10 25 18-14" />
        <path d="M44 49l16 2-8 10" />
        <path d="M51 38l8 9" />
      </g>
      <circle cx="48" cy="29" r="5.8" fill="url(#runnerL)" stroke="#1B320A" stroke-width="1.2" />

      <g stroke="url(#runnerR)" stroke-width="6.8">
        <path d="M66 46l10-9 14 8" />
        <path d="M75 49l16 16" />
        <path d="M69 51l13 1-8 9" />
        <path d="M84 39l8 9" />
        <path d="M72 63l15 8-10 11h18" />
      </g>
      <circle cx="83" cy="29" r="5.8" fill="url(#runnerR)" stroke="#082A31" stroke-width="1.2" />
    </g>
  </g>
</svg>

