<svg xmlns="http://www.w3.org/2000/svg" viewBox="0 0 128 128" fill="none">
  <defs>
    <radialGradient id="glow" cx="0" cy="0" r="1" gradientUnits="userSpaceOnUse" gradientTransform="translate(63 62) rotate(90) scale(54)">
      <stop offset="0" stop-color="#8BFF4A" stop-opacity=".95" />
      <stop offset=".55" stop-color="#41EFD3" stop-opacity=".5" />
      <stop offset="1" stop-color="#0A0C10" stop-opacity="0" />
    </radialGradient>
    <linearGradient id="runnerG" x1="28" y1="88" x2="96" y2="28" gradientUnits="userSpaceOnUse">
      <stop stop-color="#7BFF49" />
      <stop offset="1" stop-color="#17E3EF" />
    </linearGradient>
    <linearGradient id="splitG" x1="44" y1="84" x2="90" y2="36" gradientUnits="userSpaceOnUse">
      <stop stop-color="#70FF4A" />
      <stop offset="1" stop-color="#0FD9FF" />
    </linearGradient>
  </defs>

  <rect width="128" height="128" rx="24" fill="#0B0E12"/>
  <rect x="1" y="1" width="126" height="126" rx="23" stroke="rgba(255,255,255,.08)"/>
  <circle cx="64" cy="64" r="52" fill="url(#glow)"/>

  <g opacity=".45" stroke="#44E8D8" stroke-width="2.4" stroke-linecap="round">
    <path d="M20 56h8"/>
    <path d="M16 63h14"/>
    <path d="M96 88h10"/>
    <path d="M102 95h12"/>
  </g>

  <g stroke="url(#runnerG)" stroke-linecap="round" stroke-linejoin="round">
    <circle cx="60" cy="34" r="6.5" fill="none" stroke-width="2"/>
    <circle cx="86" cy="34" r="6.5" fill="none" stroke-width="2"/>
    <path d="M46 48l11-10h13l-9 12" stroke-width="5.2"/>
    <path d="M57 50l-14 30 18-16" stroke="url(#splitG)" stroke-width="5.6"/>
    <path d="M61 52l15 2-8 10" stroke-width="4.8"/>
    <path d="M72 42l8 10" stroke-width="4.4"/>
    <path d="M78 51l15 26" stroke-width="5.8"/>
    <path d="M68 68l18 2" stroke-width="4.6"/>
    <path d="M62 70l-4 17" stroke-width="3.8"/>
  </g>
</svg>

